<?xml version="1.0" encoding="UTF-8"?>
<!DOCTYPE svg PUBLIC "-//W3C//DTD SVG 1.1//EN" "http://www.w3.org/Graphics/SVG/1.1/DTD/svg11.dtd">
<svg xmlns="http://www.w3.org/2000/svg" version="1.1" width="128px" height="40px" style="shape-rendering:geometricPrecision; text-rendering:geometricPrecision; image-rendering:optimizeQuality; fill-rule:evenodd; clip-rule:evenodd" xmlns:xlink="http://www.w3.org/1999/xlink">
<g><path style="opacity:0.899" fill="#fd645b" d="M 1.5,-0.5 C 3.83333,-0.5 6.16667,-0.5 8.5,-0.5C 13.2507,3.32691 17.9173,3.32691 22.5,-0.5C 25.1667,-0.5 27.8333,-0.5 30.5,-0.5C 34.5316,7.27261 32.1983,10.7726 23.5,10C 21.1342,8.76696 18.6342,7.93363 16,7.5C 12.1807,8.20328 8.51407,9.20328 5,10.5C 2.8218,10.6052 0.988468,9.93854 -0.5,8.5C -0.5,6.16667 -0.5,3.83333 -0.5,1.5C 0.5,1.16667 1.16667,0.5 1.5,-0.5 Z"/></g>
<g><path style="opacity:0.657" fill="#ffede5" d="M 51.5,8.5 C 53.1667,8.5 54.8333,8.5 56.5,8.5C 56.5,16.8333 56.5,25.1667 56.5,33.5C 54.8333,33.5 53.1667,33.5 51.5,33.5C 51.5,25.1667 51.5,16.8333 51.5,8.5 Z"/></g>
<g><path style="opacity:0.834" fill="#ffeee6" d="M 64.5,8.5 C 72.0245,7.04144 76.0245,10.0414 76.5,17.5C 75.0222,17.762 73.6888,17.4287 72.5,16.5C 70.4024,11.8417 67.9024,11.5084 65,15.5C 64.3333,19.1667 64.3333,22.8333 65,26.5C 67.673,30.0326 70.173,29.6993 72.5,25.5C 71.3112,24.5713 69.9778,24.238 68.5,24.5C 68.5,23.1667 68.5,21.8333 68.5,20.5C 71.1667,20.5 73.8333,20.5 76.5,20.5C 77.8394,31.0013 73.5061,34.8346 63.5,32C 62.6667,31.1667 61.8333,30.3333 61,29.5C 60.3333,23.8333 60.3333,18.1667 61,12.5C 62.1022,11.051 63.2689,9.7177 64.5,8.5 Z"/></g>
<g><path style="opacity:0.86" fill="#ffeee6" d="M 81.5,8.5 C 83.1439,8.28649 84.6439,8.61983 86,9.5C 88.3333,13.8333 90.6667,18.1667 93,22.5C 93.4992,17.8452 93.6658,13.1785 93.5,8.5C 95.1667,8.5 96.8333,8.5 98.5,8.5C 98.5,16.8333 98.5,25.1667 98.5,33.5C 96.712,33.7852 95.0453,33.4519 93.5,32.5C 91.2012,27.7076 88.7012,23.041 86,18.5C 85.5007,23.4889 85.3341,28.4889 85.5,33.5C 84.1667,33.5 82.8333,33.5 81.5,33.5C 81.5,25.1667 81.5,16.8333 81.5,8.5 Z"/></g>
<g><path style="opacity:0.856" fill="#ffefe7" d="M 108.5,8.5 C 110.766,8.14118 112.599,8.80784 114,10.5C 116.882,17.9767 119.048,25.6434 120.5,33.5C 119.022,33.762 117.689,33.4287 116.5,32.5C 115.349,27.7475 112.349,26.2475 107.5,28C 106.74,29.4411 106.074,30.9411 105.5,32.5C 104.311,33.4287 102.978,33.762 101.5,33.5C 103.628,25.1156 105.961,16.7822 108.5,8.5 Z M 110.5,15.5 C 111.67,17.6502 112.67,19.9836 113.5,22.5C 111.926,23.6309 110.259,23.7975 108.5,23C 109.554,20.6178 110.221,18.1178 110.5,15.5 Z"/></g>
<g><path style="opacity:0.795" fill="#ffeee6" d="M 127.5,8.5 C 127.5,16.8333 127.5,25.1667 127.5,33.5C 126.167,33.5 124.833,33.5 123.5,33.5C 123.5,25.1667 123.5,16.8333 123.5,8.5C 124.833,8.5 126.167,8.5 127.5,8.5 Z"/></g>
<g><path style="opacity:0.91" fill="#fc6258" d="M 12.5,13.5 C 17.1598,14.4943 21.8264,15.4943 26.5,16.5C 30.2215,16.2792 33.7215,15.2792 37,13.5C 40.9277,13.5944 43.0944,15.5944 43.5,19.5C 42.6499,24.8499 39.6499,26.6833 34.5,25C 29.1004,21.7271 23.767,21.7271 18.5,25C 9.09595,25.141 7.09595,21.3076 12.5,13.5 Z"/></g>
<g><path style="opacity:0.908" fill="#fd635a" d="M 29.5,39.5 C 27.5,39.5 25.5,39.5 23.5,39.5C 18.4484,35.5181 13.4484,35.5181 8.5,39.5C 6.16667,39.5 3.83333,39.5 1.5,39.5C 1.16667,38.5 0.5,37.8333 -0.5,37.5C -0.5,35.1667 -0.5,32.8333 -0.5,30.5C 0.988468,29.0615 2.8218,28.3948 5,28.5C 8.64774,29.4857 12.3144,30.4857 16,31.5C 20.6209,29.2639 25.4542,28.4305 30.5,29C 33.3851,32.9438 33.0517,36.4438 29.5,39.5 Z"/></g>
</svg>
